<?xml version="1.0" encoding="UTF-8" standalone="no"?>
<!-- Created with Inkscape (http://www.inkscape.org/) -->

<svg
   width="512"
   height="128"
   viewBox="0 0 512 128"
   version="1.1"
   id="svg5"
   xml:space="preserve"
   inkscape:version="1.2.2 (732a01da63, 2022-12-09)"
   sodipodi:docname="PrintiVerse.svg"
   xmlns:inkscape="http://www.inkscape.org/namespaces/inkscape"
   xmlns:sodipodi="http://sodipodi.sourceforge.net/DTD/sodipodi-0.dtd"
   xmlns="http://www.w3.org/2000/svg"
   xmlns:svg="http://www.w3.org/2000/svg"><sodipodi:namedview
     id="namedview7"
     pagecolor="#505050"
     bordercolor="#ffffff"
     borderopacity="1"
     inkscape:showpageshadow="0"
     inkscape:pageopacity="0"
     inkscape:pagecheckerboard="1"
     inkscape:deskcolor="#505050"
     inkscape:document-units="px"
     showgrid="false"
     inkscape:zoom="1.5703125"
     inkscape:cx="322.54727"
     inkscape:cy="104.1194"
     inkscape:window-width="1920"
     inkscape:window-height="991"
     inkscape:window-x="-9"
     inkscape:window-y="426"
     inkscape:window-maximized="1"
     inkscape:current-layer="g217" /><defs
     id="defs2" /><g
     inkscape:label="Warstwa 1"
     inkscape:groupmode="layer"
     id="layer1"><g
       id="g198"><g
         id="g217"
         transform="matrix(0.58767314,0,0,0.58767314,26.843418,22.334383)"><g
           id="g236"
           transform="matrix(2.2222222,0,0,2.2222222,-180.13943,-120.71018)"><path
             d="M 65.102278,118.28184 87.399695,105.45881 65.102278,92.635784 Z M 87.399695,54.166694 65.102278,66.989724 87.399695,79.812754 V 105.45881 L 109.69711,92.635784 v -25.64606 z"
             id="P-logo"
             style="fill:#fe6b46;stroke-width:1.83186"
             inkscape:highlight-color="#eed23b" /><path
             style="fill:#ffffff;stroke-width:1.83186"
             d="m 228.7223,101.33349 a 8.4870139,8.4870139 0 0 1 -6.05796,-1.963757 7.3457642,7.3457642 0 0 1 -2.05169,-5.643965 V 83.718283 h -3.9385 v -7.900819 h 3.9385 v -7.805561 h 8.51266 v 7.805561 h 5.66229 v 7.900819 h -5.66229 v 8.146287 a 1.4471705,1.4471705 0 0 0 1.72378,1.718286 h 3.93851 v 7.750604 z"
             id="path356" /><path
             style="fill:#ffffff;stroke-width:1.83186"
             d="M 189.87585,101.34079 V 75.817464 h 7.48132 l 0.49277,1.963756 h 0.24547 a 7.4080475,7.4080475 0 0 1 2.61224,-1.690808 10.344521,10.344521 0 0 1 4.13634,-0.787701 10.075238,10.075238 0 0 1 5.12921,1.282303 8.9413155,8.9413155 0 0 1 3.46588,3.634413 11.458293,11.458293 0 0 1 1.25849,5.495585 v 15.638598 h -8.51998 V 87.576183 a 4.0300951,4.0300951 0 0 0 -1.06065,-2.898005 3.8908736,3.8908736 0 0 0 -6.71377,2.898005 v 13.770097 z"
             id="path354" /><path
             style="fill:#ffffff;stroke-width:1.83186"
             d="m 185.57647,101.34079 h -8.51266 V 75.817464 h 8.51266 z"
             id="path352" /><path
             style="fill:#ffffff;stroke-width:1.83186"
             d="m 185.68455,72.380892 h -8.71783 V 65.50958 h 8.71783 z"
             id="path350" /><path
             style="fill:#ffffff;stroke-width:1.83186"
             d="M 157.79446,101.34079 V 75.817464 h 7.48132 l 0.49277,1.813543 h 0.24547 a 4.2938831,4.2938831 0 0 1 1.75126,-1.282303 6.4444884,6.4444884 0 0 1 2.68002,-0.538567 h 4.62911 v 7.900818 h -4.43127 q -4.34151,0 -4.34151,4.533857 v 13.088648 z"
             id="path348" /><path
             style="fill:#ffffff;stroke-width:1.83186"
             d="M 127.23718,101.34079 V 66.986061 h 16.34204 a 12.337587,12.337587 0 0 1 6.15322,1.520445 10.485575,10.485575 0 0 1 4.1565,4.321361 13.770102,13.770102 0 0 1 1.47647,6.523258 13.953288,13.953288 0 0 1 -1.47647,6.558064 10.458097,10.458097 0 0 1 -4.1565,4.341511 12.337587,12.337587 0 0 1 -6.15322,1.520445 h -7.23402 v 9.543995 z m 15.72653,-18.318615 a 3.0885183,3.0885183 0 0 0 2.35944,-1.002028 4.2517503,4.2517503 0 0 0 0,-5.323389 3.0463855,3.0463855 0 0 0 -2.35944,-1.036834 h -6.64599 v 7.362251 z"
             id="path203" /><g
             id="M-logo"
             transform="matrix(1.4727313,0,0,1.4727313,-164.02061,-77.752707)"
             style="fill:#3498db"><path
               d="m 372.82971,118.07671 h -3.72086 c -1.70886,0 -3.09428,1.37155 -3.09428,3.06357 v 4.49555 c 0,1.69202 1.38542,3.06356 3.09428,3.06356 h 3.72086 c 1.70911,0 3.09453,-1.37154 3.09453,-3.06356 v -4.49555 c 0,-1.69202 -1.38542,-3.06357 -3.09453,-3.06357 z"
               fill="#3498db"
               id="path227"
               style="fill:#ffffff;stroke-width:2.47661" /><path
               d="m 412.45253,118.07671 h -3.71319 c -1.7096,0 -3.09428,-1.37105 -3.09428,-3.06357 V 98.263372 c 0,-1.692591 -1.38467,-3.063519 -3.09428,-3.063519 h -3.71318 c -1.7096,0 -3.09428,1.370928 -3.09428,3.063519 v 16.757448 c 0,1.68484 -1.38492,3.05589 -3.09452,3.05589 h -3.71319 c -1.7096,0 -3.09428,-1.37105 -3.09428,-3.06357 V 98.255719 c 0,-1.692591 -1.38467,-3.063519 -3.09428,-3.063519 h -3.71318 c -1.7096,0 -3.09428,1.370928 -3.09428,3.063519 v 16.749751 c 0,1.69251 1.38468,3.06356 3.09428,3.06356 h 3.71318 c 1.70961,0 3.09428,1.37081 3.09428,3.06357 v 4.48787 c 0,1.69276 1.38468,3.06357 3.09428,3.06357 h 3.71319 c 1.7096,0 3.09452,-1.37081 3.09452,-3.06357 v -4.49554 c 0,-1.68509 1.38468,-3.0559 3.09428,-3.0559 h 3.71318 c 1.70961,0 3.09428,1.37081 3.09428,3.06357 v 4.48787 c 0,1.69276 1.38468,3.06357 3.09428,3.06357 h 3.71319 c 1.7096,0 3.09427,-1.37081 3.09427,-3.06357 v -4.48787 c 0,-1.69276 -1.38467,-3.06357 -3.09427,-3.06357 z"
               fill="#3498db"
               id="path229"
               style="fill:#ffffff;stroke-width:2.47661" /></g><path
             style="fill:#ffffff;stroke-width:2.47661"
             d="m 353.47408,102.48474 c -6.90975,0 -11.63512,-5.037427 -11.63512,-12.259227 0,-7.17722 4.81453,-12.25922 11.63512,-12.25922 6.9989,0 12.17007,5.17116 11.63512,13.64117 h -18.45571 c 0.49037,4.05669 3.07595,7.04349 6.82059,7.04349 2.80848,0 4.90369,-1.60485 5.83985,-3.96754 h 5.12659 c -1.38195,4.76996 -5.57238,7.801327 -10.96644,7.801327 z m -6.68685,-14.577327 h 13.46286 c -0.66869,-3.65548 -3.25427,-6.15191 -6.77601,-6.15191 -3.56632,0 -5.97359,2.58558 -6.68685,6.15191 z"
             id="path342" /><path
             style="fill:#ffffff;stroke-width:2.47661"
             d="m 328.00708,102.48474 c -5.5278,0 -9.71822,-2.45184 -10.11943,-7.801327 h 4.94827 c 0.53494,2.94222 2.45184,4.05669 5.26032,4.05669 2.27353,0 4.99285,-0.71326 4.99285,-3.20968 0,-5.48322 -14.53276,-1.78316 -14.53276,-10.56523 0,-4.63622 4.14585,-6.9989 9.22786,-6.9989 5.75069,0 9.31701,2.94221 9.67364,7.66759 h -4.90369 c -0.17831,-2.49643 -1.78316,-3.92296 -4.85911,-3.92296 -2.13979,0 -4.36874,0.80242 -4.36874,2.80848 0,4.76995 14.62191,2.09521 14.62191,10.74354 0,5.037427 -4.68079,7.221797 -9.94112,7.221797 z"
             id="path340" /><path
             style="fill:#ffffff;stroke-width:2.47661"
             d="m 303.7239,81.398873 c 0,-1.78316 1.24822,-2.98679 2.9868,-2.98679 h 8.47001 v 4.14584 h -6.64227 v 19.481027 h -4.81454 z"
             id="path338" /><path
             style="fill:#ffffff;stroke-width:2.47661"
             d="m 287.34359,102.48474 c -6.90974,0 -11.63512,-5.037427 -11.63512,-12.259227 0,-7.17722 4.81454,-12.25922 11.63512,-12.25922 6.99891,0 12.17007,5.17116 11.63513,13.64117 h -18.45571 c 0.49037,4.05669 3.07595,7.04349 6.82058,7.04349 2.80848,0 4.9037,-1.60485 5.83985,-3.96754 h 5.12659 c -1.38195,4.76996 -5.57238,7.801327 -10.96644,7.801327 z m -6.68685,-14.577327 h 13.46286 c -0.66868,-3.65548 -3.25426,-6.15191 -6.77601,-6.15191 -3.56632,0 -5.97358,2.58558 -6.68685,6.15191 z"
             id="path336" /><path
             style="fill:#ffffff;stroke-width:2.47661"
             d="m 258.51336,102.03895 -7.97965,-23.225657 v -0.40121 h 4.99285 l 4.41333,13.99781 1.694,5.48321 h 0.847 l 1.694,-5.48321 4.41332,-13.99781 h 4.94827 v 0.40121 l -7.97964,23.225657 z"
             id="path334" /><path
             style="fill:#ffffff;stroke-width:2.47661"
             d="m 241.38511,75.291553 v -4.903696 h 4.81453 v 4.903696 z"
             id="path332" /><path
             style="fill:#ffffff;stroke-width:2.47661"
             d="M 241.38511,102.03895 V 78.412083 h 4.81453 v 23.626867 z"
             id="path330" /></g></g></g></g></svg>
