<?xml version="1.0" encoding="UTF-8" standalone="no"?>
<!-- Created with Inkscape (http://www.inkscape.org/) -->

<svg
   width="254"
   height="128"
   viewBox="0 0 254 128"
   version="1.1"
   id="svg5"
   xml:space="preserve"
   inkscape:version="1.2.2 (732a01da63, 2022-12-09)"
   sodipodi:docname="Printi.svg"
   xmlns:inkscape="http://www.inkscape.org/namespaces/inkscape"
   xmlns:sodipodi="http://sodipodi.sourceforge.net/DTD/sodipodi-0.dtd"
   xmlns="http://www.w3.org/2000/svg"
   xmlns:svg="http://www.w3.org/2000/svg"><sodipodi:namedview
     id="namedview7"
     pagecolor="#505050"
     bordercolor="#ffffff"
     borderopacity="1"
     inkscape:showpageshadow="0"
     inkscape:pageopacity="0"
     inkscape:pagecheckerboard="1"
     inkscape:deskcolor="#505050"
     inkscape:document-units="px"
     showgrid="false"
     inkscape:zoom="1.5703125"
     inkscape:cx="322.54727"
     inkscape:cy="104.1194"
     inkscape:window-width="1920"
     inkscape:window-height="991"
     inkscape:window-x="-9"
     inkscape:window-y="426"
     inkscape:window-maximized="1"
     inkscape:current-layer="g236" /><defs
     id="defs2" /><g
     inkscape:label="Warstwa 1"
     inkscape:groupmode="layer"
     id="layer1"><g
       id="g198"><g
         id="g217"
         transform="matrix(0.58767314,0,0,0.58767314,26.843418,22.334383)"><g
           id="g236"
           transform="matrix(2.2222222,0,0,2.2222222,-180.13943,-120.71018)"><g
             id="g311"
             transform="translate(20.21616)"><path
               d="M 65.102278,118.28184 87.399695,105.45881 65.102278,92.635784 Z M 87.399695,54.166694 65.102278,66.989724 87.399695,79.812754 V 105.45881 L 109.69711,92.635784 v -25.64606 z"
               id="P-logo"
               style="fill:#fe6b46;stroke-width:1.83186"
               inkscape:highlight-color="#eed23b" /><path
               style="fill:#ffffff;stroke-width:1.83186"
               d="m 228.7223,101.33349 a 8.4870139,8.4870139 0 0 1 -6.05796,-1.963757 7.3457642,7.3457642 0 0 1 -2.05169,-5.643965 V 83.718283 h -3.9385 v -7.900819 h 3.9385 v -7.805561 h 8.51266 v 7.805561 h 5.66229 v 7.900819 h -5.66229 v 8.146287 a 1.4471705,1.4471705 0 0 0 1.72378,1.718286 h 3.93851 v 7.750604 z"
               id="path356" /><path
               style="fill:#ffffff;stroke-width:1.83186"
               d="M 189.87585,101.34079 V 75.817464 h 7.48132 l 0.49277,1.963756 h 0.24547 a 7.4080475,7.4080475 0 0 1 2.61224,-1.690808 10.344521,10.344521 0 0 1 4.13634,-0.787701 10.075238,10.075238 0 0 1 5.12921,1.282303 8.9413155,8.9413155 0 0 1 3.46588,3.634413 11.458293,11.458293 0 0 1 1.25849,5.495585 v 15.638598 h -8.51998 V 87.576183 a 4.0300951,4.0300951 0 0 0 -1.06065,-2.898005 3.8908736,3.8908736 0 0 0 -6.71377,2.898005 v 13.770097 z"
               id="path354" /><path
               style="fill:#ffffff;stroke-width:1.83186"
               d="m 185.57647,101.34079 h -8.51266 V 75.817464 h 8.51266 z"
               id="path352" /><path
               style="fill:#ffffff;stroke-width:1.83186"
               d="m 185.68455,72.380892 h -8.71783 V 65.50958 h 8.71783 z"
               id="path350" /><path
               style="fill:#ffffff;stroke-width:1.83186"
               d="M 157.79446,101.34079 V 75.817464 h 7.48132 l 0.49277,1.813543 h 0.24547 a 4.2938831,4.2938831 0 0 1 1.75126,-1.282303 6.4444884,6.4444884 0 0 1 2.68002,-0.538567 h 4.62911 v 7.900818 h -4.43127 q -4.34151,0 -4.34151,4.533857 v 13.088648 z"
               id="path348" /><path
               style="fill:#ffffff;stroke-width:1.83186"
               d="M 127.23718,101.34079 V 66.986061 h 16.34204 a 12.337587,12.337587 0 0 1 6.15322,1.520445 10.485575,10.485575 0 0 1 4.1565,4.321361 13.770102,13.770102 0 0 1 1.47647,6.523258 13.953288,13.953288 0 0 1 -1.47647,6.558064 10.458097,10.458097 0 0 1 -4.1565,4.341511 12.337587,12.337587 0 0 1 -6.15322,1.520445 h -7.23402 v 9.543995 z m 15.72653,-18.318615 a 3.0885183,3.0885183 0 0 0 2.35944,-1.002028 4.2517503,4.2517503 0 0 0 0,-5.323389 3.0463855,3.0463855 0 0 0 -2.35944,-1.036834 h -6.64599 v 7.362251 z"
               id="path203" /></g></g></g></g></g></svg>
